<svg xmlns="http://www.w3.org/2000/svg" viewBox="0 0 568.09 580.96"><defs><style>.cls-1,.cls-3{fill:none;stroke-miterlimit:10;}.cls-1{stroke:#ea1e79;stroke-width:7px;}.cls-2{fill:#ea1e79;}.cls-3{stroke:#2fbcea;stroke-width:12px;}</style></defs><title>dni_1</title><g id="texto"><path class="cls-1" d="M364.47,19.81A14.84,14.84,0,0,0,354.06,5.67a13,13,0,0,0-1.41-.37,14.9,14.9,0,0,0-3-.31H199.47a14.82,14.82,0,0,0-14.8,14.8v86.14a14.82,14.82,0,0,0,14.8,14.81h15.17v25a2.51,2.51,0,0,0,1.59,2.33,2.56,2.56,0,0,0,.89.16,2.48,2.48,0,0,0,1.85-.81l24.22-26.63H349.68a14.82,14.82,0,0,0,14.8-14.81Z"/><path class="cls-2" d="M262.3,19.41l-29-3.43a11.11,11.11,0,0,0-12.3,9.7l-6.24,52.79a11.11,11.11,0,0,0,9.7,12.3l88,10.4a11.11,11.11,0,0,0,12.3-9.7L331,38.68a11.11,11.11,0,0,0-9.7-12.3h0l-29-3.43Zm24.41,3.89v.11m2.58,3.65,31.46,3.72a6.66,6.66,0,0,1,5.82,7.38L320.31,91a6.66,6.66,0,0,1-7.38,5.82l-88-10.4A6.66,6.66,0,0,1,219.13,79l6.24-52.79a6.66,6.66,0,0,1,7.38-5.82Zm31,63.89"/><path class="cls-2" d="M269.24,66.4c-1.15-6.27-4.73-9-9.18-11a16.49,16.49,0,0,0,4.19-9,13.29,13.29,0,0,0-26.4-3.12,17.25,17.25,0,0,0,2.07,9.84c-4.46.92-8.47,2.79-11.06,8.62l-2.66,6.49a4.15,4.15,0,0,0,.15,3.47,3.88,3.88,0,0,0,2.9,1.9L266.09,78a3.88,3.88,0,0,0,3.26-1.18,3.79,3.79,0,0,0,1-3.34ZM252.08,36a8.89,8.89,0,0,1,7.76,9.84c-.59,4.95-5.37,10.52-10.1,10a6.81,6.81,0,0,1-4.19-2.28l-.39-.49a13.13,13.13,0,0,1-2.92-9.27A8.89,8.89,0,0,1,252.08,36ZM230.54,69.19l2.35-5.74c1.85-4.35,4.8-5.68,10-6.29a11.26,11.26,0,0,0,6.33,3.09,10.76,10.76,0,0,0,7-1.63c5.33,2.08,7.8,3.82,8.7,8.5l.93,6.25Zm0,0"/><path class="cls-2" d="M312.94,58.87l-35.2-4.16a2.22,2.22,0,1,0-.52,4.4l35.2,4.16a2.22,2.22,0,1,0,.52-4.4Zm0,0"/><path class="cls-2" d="M314,50l-35.2-4.16a2.22,2.22,0,1,0-.52,4.4l35.2,4.16A2.22,2.22,0,1,0,314,50Zm0,0"/><path class="cls-2" d="M291,65.2l-14.3-1.69a2.21,2.21,0,1,0-.52,4.4l14.3,1.69a2.21,2.21,0,1,0,.52-4.4Zm0,0"/><path class="cls-2" d="M304.2,66.76l-3.3-.39a2.21,2.21,0,1,0-.52,4.4l3.3.39a2.21,2.21,0,1,0,.52-4.4Zm0,0"/><path class="cls-3" d="M352.24,422.44h2.46v132.4a20.51,20.51,0,0,0,41,0V422.44h9.63V554.81a20.51,20.51,0,1,0,41,0V422.44h2.28a7,7,0,0,0,5.37-2.22,7.12,7.12,0,0,0,1.85-5.52l-2.68-42.5a28.43,28.43,0,0,0,22.8-32l-11.18-77.4a35,35,0,0,0-34.62-30.12H369.94a35.13,35.13,0,0,0-34.71,30.54L323.6,351.77l-233.76,0a20.44,20.44,0,1,0,0,40.87m255.3,22.24"/><path class="cls-3" d="M438.06,178.59A37.56,37.56,0,1,1,400.48,141a37.57,37.57,0,0,1,37.58,37.58Zm0,0"/><path class="cls-3" d="M254.64,338.79l-6.49-49.91a35,35,0,0,0-34.7-30.44H151.53a35,35,0,0,0-34.76,30.63l-6.16,49.72m40.92-80.35"/><path class="cls-3" d="M220.11,207.5A37.56,37.56,0,1,1,182.57,170a37.54,37.54,0,0,1,37.54,37.54Zm0,0"/><circle class="cls-3" cx="192.59" cy="484.55" r="67.24"/><path class="cls-3" d="M193.26,438.06a9.37,9.37,0,1,0,9.36,9.37,9.38,9.38,0,0,0-9.36-9.37Zm0,0"/><path class="cls-3" d="M193.26,470.84a7,7,0,0,0-7,7V520a7,7,0,0,0,14.05,0V477.87a7,7,0,0,0-7-7Zm0,0"/></g></svg>