<svg xmlns="http://www.w3.org/2000/svg" viewBox="0 0 568.09 580.96"><defs><style>.cls-1{fill:#2fbcea;}.cls-2{fill:#ea1e79;}.cls-3{fill:none;stroke:#ea1e79;stroke-miterlimit:10;stroke-width:9px;}</style></defs><title>codigo</title><g id="texto"><path class="cls-1" d="M275.07,476.71c8,0,14.44-5.93,14.44-13.22s-6.48-13.22-14.44-13.22-14.43,5.93-14.43,13.22S267.11,476.71,275.07,476.71Zm0-19.49c3.77,0,6.84,2.81,6.84,6.26s-3.07,6.27-6.84,6.27a6.29,6.29,0,1,1,0-12.53Z"/><rect class="cls-2" x="303.64" y="94.19" width="4.11" height="89.21"/><rect class="cls-2" x="311.39" y="94.19" width="7.59" height="89.21"/><rect class="cls-2" x="321.83" y="94.19" width="5.69" height="89.21"/><rect class="cls-2" x="332.59" y="94.19" width="3.16" height="89.21"/><rect class="cls-2" x="435.92" y="94.19" width="7.59" height="89.21"/><rect class="cls-2" x="427.53" y="94.19" width="5.38" height="89.21"/><rect class="cls-2" x="419.15" y="94.19" width="3.16" height="89.21"/><rect class="cls-2" x="408.87" y="94.19" width="4.75" height="89.21"/><rect class="cls-2" x="349.99" y="103.11" width="8.92" height="8.92"/><path class="cls-2" d="M403.52,125.41v4.46m0-35.68v4.46h-4.46v4.46h4.46V121"/><rect class="cls-2" x="349.99" y="165.56" width="8.92" height="8.92"/><rect class="cls-2" x="381.22" y="178.94" width="4.46" height="4.46"/><rect class="cls-2" x="385.68" y="161.1" width="4.46" height="4.46"/><rect class="cls-2" x="385.68" y="170.02" width="4.46" height="4.46"/><rect class="cls-2" x="341.07" y="147.71" width="4.46" height="4.46"/><rect class="cls-2" x="341.07" y="125.41" width="4.46" height="4.46"/><polygon class="cls-2" points="390.14 98.65 390.14 103.11 381.22 103.11 381.22 107.57 394.6 107.57 394.6 103.11 394.6 98.65 390.14 98.65"/><path class="cls-2" d="M403.52,138.79v-4.46h-4.46v4.46h-8.92v4.46h13.38v4.46H390.14v-4.46h-4.46v4.46h-4.46v-4.46h-4.46v4.46H372.3v4.46h8.92v4.46h4.46v-4.46h8.92v4.46h-4.46v4.46h4.46V170h4.46v4.46h4.46V170m-4.46-4.46V152.18"/><polygon class="cls-2" points="399.06 120.95 394.6 120.95 394.6 125.41 390.14 125.41 390.14 129.87 390.14 134.33 394.6 134.33 394.6 129.87 399.06 129.87 399.06 125.41 403.52 125.41 403.52 120.95 399.06 120.95"/><rect class="cls-2" x="390.14" y="178.94" width="8.92" height="4.46"/><rect class="cls-2" x="376.76" y="98.65" width="4.46" height="4.46"/><rect class="cls-2" x="358.91" y="147.71" width="4.46" height="4.46"/><path class="cls-2" d="M367.84,178.94V161.1h4.46v-8.92h-4.46v4.46H354.45v-4.46h-8.92v4.46h-4.46V183.4h35.68v-4.46Zm-4.46,0H345.53V161.1h17.84Z"/><rect class="cls-2" x="367.84" y="120.95" width="4.46" height="4.46"/><path class="cls-2" d="M372.3,94.19H341.07V121h4.46v4.46H350V121h4.46v4.46h4.46V121h8.92V112h4.46v-4.46h-4.46V98.65h8.92V94.19Zm-8.92,22.3H345.53V98.65h17.84Z"/><rect class="cls-2" x="394.6" y="107.57" width="4.46" height="4.46"/><rect class="cls-2" x="385.68" y="94.19" width="4.46" height="4.46"/><path class="cls-2" d="M394.6,121v-4.46h-4.46V112h-4.46v4.46h-8.92V112H372.3V121h4.46v8.92H363.38v-4.46h-4.46v4.46H345.53v4.46h8.92v4.46H341.07v4.46h13.38v4.46h4.46v-4.46h4.46v4.46h4.46v-4.46h8.92v-4.46H372.3v-4.46h8.92v4.46h8.92v-4.46h-4.46v-4.46h-4.46V121H394.6Zm-26.76,17.84h-8.92v-4.46h8.92Z"/><polygon class="cls-2" points="381.22 165.56 381.22 161.1 381.22 156.64 376.76 156.64 376.76 161.1 372.3 161.1 372.3 165.56 376.76 165.56 376.76 170.02 372.3 170.02 372.3 174.48 381.22 174.48 381.22 170.02 385.68 170.02 385.68 165.56 381.22 165.56"/><path class="cls-1" d="M277.33,475c8,0,14.43-5.93,14.43-13.21s-6.47-13.21-14.43-13.21-14.42,5.93-14.42,13.21S269.37,475,277.33,475Zm0-19.47c3.77,0,6.84,2.81,6.84,6.26S281.1,468,277.33,468a6.28,6.28,0,1,1,0-12.52Z"/><path class="cls-1" d="M145.6,410.81c-6.68,0-12.12-5-12.12-11.09v-1.48c0-6.12,5.44-11.09,12.12-11.09h18.17v23.67H145.6Zm-3-58.43c0-6.12,5.44-11.09,12.12-11.09h9.09V365h-9.09c-6.68,0-12.12-5-12.12-11.09Zm21.2,104.28h-9.09c-6.68,0-12.12-5-12.12-11.09v-1.48C142.57,438,148,433,154.69,433h9.09Zm101.7-304.13H201.08c-20,0-36.35,14.93-36.35,33.28V319.1H154.69c-20,0-36.35,14.93-36.35,33.28v1.48a31.05,31.05,0,0,0,5.58,17.68c-8.89,6.07-14.66,15.78-14.66,26.69v1.48c0,10.92,5.77,20.62,14.66,26.69a31.06,31.06,0,0,0-5.58,17.68v1.48c0,18.35,16.31,33.28,36.35,33.28h10.09c.52,12.9,9.09,23.95,21.24,29,1.13,11.65,4.95,33.49,17.89,50.52a12.47,12.47,0,0,0,10,4.76,12.85,12.85,0,0,0,6.91-2c5.49-3.5,6.85-10.41,3-15.44-8.24-10.84-11.63-25.08-13-34.83H310.94c.33.46.66.91,1,1.34a12.83,12.83,0,0,0,16.86,2.81c5.5-3.49,6.88-10.4,3.07-15.43-14.44-19.11-10.65-39.81,11.61-63.25,3.72-2.94,14.91-13,13.59-26.66-1-10.36-8.61-19.07-22.62-25.89a12.49,12.49,0,0,0-1.29-.54c-.56-.2-13.82-5.08-11.8-17.42,1.22-7.47,17.89-9.18,28.8-8.5,28.06,1.74,38.78,4,48.64,15.34,7,8,9.22,18.44,6.87,31.88q-.75,4.3-1.51,8.83c-7,41.26-14.49,93.78-59.26,128.37a10.46,10.46,0,0,0-1.45,15.63,12.58,12.58,0,0,0,9.27,3.94,12.75,12.75,0,0,0,7.81-2.62c51.7-39.94,60.39-99.38,67.58-141.93q.75-4.47,1.49-8.72c3.43-19.66-.55-36.21-11.84-49.2-9-10.37-13-13.32-30.35-18.11V244.67l-24.23,1.67v89.89c-3.67-.42-7.45-.77-11.38-1-30.48-1.88-51.34,8.6-54.4,27.36-3.79,23.19,15.06,36.81,26.2,41.09,6.59,3.29,9.15,6.26,9.33,8,.25,2.39-3.09,6.31-5.42,8a11.76,11.76,0,0,0-1.62,1.4,111.65,111.65,0,0,0-18.7,25.17s-7.11,12-7.4,22.19a55.22,55.22,0,0,0,.89,20.27H201.08c-6.68,0-12.12-5-12.12-11.09V185.82c0-6.12,5.44-11.09,12.12-11.09h70.22Z"/><path class="cls-1" d="M322.78,426.09H214.66V201.72h71.15l-8.5-13.29h-70.1c-4.12,0-7.45,3-7.45,6.65V432.74c0,3.67,3.33,6.65,7.45,6.65H313.89"/><polyline class="cls-1" points="350.4 342.02 350.4 243.75 335.5 239.5 335.5 342.37"/><path class="cls-3" d="M468.1,91.67a105.15,105.15,0,1,1-60.33-53.35A105.25,105.25,0,0,1,468.1,91.67Z"/></g></svg>